<svg width="20" height="20" viewBox="0 0 20 20" fill="none" xmlns="http://www.w3.org/2000/svg">
<g clip-path="url(#clip0_3_4247)">
<path d="M19.7874 10.2247C19.7874 9.56634 19.7291 8.94134 19.6291 8.33301H10.2124V12.0913H15.6041C15.3624 13.3247 14.6541 14.3663 13.6041 15.0747V17.5747H16.8207C18.7041 15.833 19.7874 13.2663 19.7874 10.2247Z" fill="#4285F4"/>
<path d="M10.2126 19.9999C12.9126 19.9999 15.1709 19.0999 16.8209 17.5749L13.6043 15.0749C12.7043 15.6749 11.5626 16.0415 10.2126 16.0415C7.60427 16.0415 5.39593 14.2832 4.60427 11.9082H1.2876V14.4832C2.92926 17.7499 6.30427 19.9999 10.2126 19.9999Z" fill="#34A853"/>
<path d="M4.60407 11.9083C4.39574 11.3083 4.2874 10.6666 4.2874 9.99993C4.2874 9.33327 4.40407 8.6916 4.60407 8.0916V5.5166H1.2874C0.604068 6.8666 0.212402 8.38327 0.212402 9.99993C0.212402 11.6166 0.604068 13.1333 1.2874 14.4833L4.60407 11.9083Z" fill="#FBBC05"/>
<path d="M10.2126 3.95833C11.6876 3.95833 13.0043 4.46667 14.0459 5.45834L16.8959 2.60833C15.1709 0.991667 12.9126 0 10.2126 0C6.30427 0 2.92926 2.25 1.2876 5.51667L4.60427 8.09167C5.39593 5.71667 7.60427 3.95833 10.2126 3.95833Z" fill="#EA4335"/>
</g>
<defs>
<clipPath id="clip0_3_4247">
<rect width="20" height="20" fill="white"/>
</clipPath>
</defs>
</svg>
