<svg width="18" height="18" viewBox="0 0 18 18" fill="none" xmlns="http://www.w3.org/2000/svg">
<path d="M2.46683 5.73301H2.70016C3.5985 5.73301 4.3335 6.46801 4.3335 7.36634V15.533C4.3335 16.4313 3.5985 17.1663 2.70016 17.1663H2.46683C1.5685 17.1663 0.833496 16.4313 0.833496 15.533V7.36634C0.833496 6.46801 1.5685 5.73301 2.46683 5.73301ZM9.00016 0.833008C9.8985 0.833008 10.6335 1.56801 10.6335 2.46634V15.533C10.6335 16.4313 9.8985 17.1663 9.00016 17.1663C8.10183 17.1663 7.36683 16.4313 7.36683 15.533V2.46634C7.36683 1.56801 8.10183 0.833008 9.00016 0.833008ZM15.5335 10.1663C16.4318 10.1663 17.1668 10.9013 17.1668 11.7997V15.533C17.1668 16.4313 16.4318 17.1663 15.5335 17.1663C14.6352 17.1663 13.9002 16.4313 13.9002 15.533V11.7997C13.9002 10.9013 14.6352 10.1663 15.5335 10.1663Z" fill="#A3AED0"/>
</svg>
